<svg xmlns="http://www.w3.org/2000/svg" xmlns:xlink="http://www.w3.org/1999/xlink" width="400" zoomAndPan="magnify" viewBox="0 0 300 187.499995" height="250" preserveAspectRatio="xMidYMid meet" version="1.0"><defs><g/><clipPath id="b46f7ef001"><path d="M 148.339844 23.441406 L 200.175781 23.441406 L 200.175781 86.378906 L 148.339844 86.378906 Z M 148.339844 23.441406 " clip-rule="nonzero"/></clipPath><clipPath id="448bcba250"><path d="M 112.660156 22.402344 L 174.664062 22.402344 L 174.664062 109.082031 L 112.660156 109.082031 Z M 112.660156 22.402344 " clip-rule="nonzero"/></clipPath></defs><path fill="#f9b53f" d="M 151.664062 52.890625 C 154.832031 54.761719 158.125 57.222656 161.257812 60.433594 C 167.648438 67.019531 170.628906 74.023438 172.03125 78.132812 C 170.246094 77.667969 167.789062 76.921875 164.929688 75.722656 C 160.566406 73.871094 155.285156 70.9375 150.191406 66.273438 C 142.433594 59.199219 138.671875 51.46875 136.960938 47.1875 C 139.851562 47.792969 145.496094 49.25 151.664062 52.890625 " fill-opacity="1" fill-rule="nonzero"/><path fill="#3ba27a" d="M 198.269531 77.441406 C 198.53125 76.539062 198.011719 75.585938 197.109375 75.308594 L 190.128906 73.261719 C 189.230469 73.003906 188.277344 73.523438 188 74.425781 C 187.742188 75.324219 188.261719 76.277344 189.160156 76.554688 L 196.140625 78.601562 C 196.296875 78.65625 196.46875 78.671875 196.625 78.671875 C 197.371094 78.671875 198.046875 78.1875 198.269531 77.441406 Z M 184.484375 35.636719 L 187.757812 27.074219 C 188.085938 26.1875 187.652344 25.199219 186.769531 24.871094 C 185.886719 24.523438 184.898438 24.976562 184.570312 25.859375 L 181.296875 34.425781 C 180.96875 35.308594 181.402344 36.296875 182.285156 36.625 C 182.492188 36.695312 182.699219 36.746094 182.890625 36.746094 C 183.566406 36.746094 184.226562 36.332031 184.484375 35.636719 Z M 146.292969 33.851562 C 147.089844 33.347656 147.316406 32.273438 146.8125 31.492188 L 143.125 25.753906 C 142.621094 24.957031 141.546875 24.730469 140.769531 25.234375 C 139.972656 25.738281 139.746094 26.8125 140.25 27.59375 L 143.9375 33.332031 C 144.269531 33.835938 144.820312 34.113281 145.375 34.113281 C 145.6875 34.128906 146 34.042969 146.292969 33.851562 Z M 156.632812 71.285156 C 156.304688 71.285156 155.976562 71.199219 155.683594 70.992188 C 154.902344 70.46875 154.695312 69.394531 155.214844 68.617188 C 156.511719 66.671875 159.285156 63.242188 163.113281 62.132812 C 167.648438 60.832031 171.894531 62.0625 175.996094 63.242188 C 177.105469 63.550781 178.144531 63.863281 179.203125 64.109375 C 181.503906 64.664062 183.929688 65.097656 185.921875 64.453125 C 188.085938 63.761719 189.941406 61.921875 191.464844 60.207031 C 192.085938 59.496094 193.179688 59.445312 193.871094 60.066406 C 194.582031 60.691406 194.632812 61.785156 194.011719 62.476562 C 192.175781 64.539062 189.90625 66.777344 186.960938 67.714844 C 184.171875 68.597656 181.195312 68.09375 178.40625 67.417969 C 177.28125 67.140625 176.152344 66.828125 175.0625 66.5 C 171.253906 65.40625 167.667969 64.367188 164.066406 65.390625 C 162.019531 65.980469 159.839844 67.835938 158.054688 70.488281 C 157.726562 71.007812 157.1875 71.285156 156.632812 71.285156 " fill-opacity="1" fill-rule="nonzero"/><g clip-path="url(#b46f7ef001)"><path fill="#446db7" d="M 181.417969 86.230469 C 182.335938 86.023438 182.925781 85.105469 182.71875 84.183594 L 181.765625 79.972656 C 181.558594 79.054688 180.640625 78.480469 179.722656 78.671875 C 178.804688 78.878906 178.214844 79.796875 178.421875 80.71875 L 179.375 84.929688 C 179.546875 85.726562 180.257812 86.265625 181.039062 86.265625 C 181.160156 86.285156 181.296875 86.265625 181.417969 86.230469 Z M 199.777344 55.925781 C 200.382812 55.195312 200.296875 54.121094 199.570312 53.515625 C 198.410156 52.527344 196.453125 51.277344 193.734375 50.863281 C 190.632812 50.375 188.105469 51.261719 186.875 51.832031 C 186.027344 52.230469 185.644531 53.253906 186.042969 54.105469 C 186.441406 54.953125 187.464844 55.335938 188.3125 54.9375 C 189.195312 54.519531 190.996094 53.894531 193.214844 54.242188 C 195.136719 54.535156 196.539062 55.4375 197.371094 56.148438 C 197.683594 56.425781 198.082031 56.546875 198.460938 56.546875 C 198.964844 56.546875 199.449219 56.339844 199.777344 55.925781 Z M 150.191406 67.992188 C 149.671875 67.992188 149.167969 67.765625 148.839844 67.332031 C 148.269531 66.585938 148.40625 65.511719 149.152344 64.941406 C 152.546875 62.304688 154.695312 59.390625 155.492188 56.269531 C 156.445312 52.558594 155.421875 49.265625 154.332031 45.78125 C 153.152344 41.984375 151.800781 37.683594 153.152344 32.605469 C 153.96875 29.5 155.628906 26.621094 158.070312 24.054688 C 158.730469 23.378906 159.804688 23.34375 160.480469 24.003906 C 161.15625 24.664062 161.1875 25.738281 160.53125 26.414062 C 158.488281 28.566406 157.101562 30.941406 156.445312 33.472656 C 155.351562 37.597656 156.445312 41.082031 157.585938 44.757812 C 158.765625 48.554688 159.996094 52.472656 158.800781 57.121094 C 157.792969 61.003906 155.25 64.542969 151.230469 67.644531 C 150.917969 67.886719 150.554688 67.992188 150.191406 67.992188 " fill-opacity="1" fill-rule="nonzero"/></g><g clip-path="url(#448bcba250)"><path fill="#f14947" d="M 138.621094 42.226562 C 138.828125 41.308594 138.257812 40.390625 137.339844 40.179688 L 132.003906 38.96875 C 131.085938 38.757812 130.167969 39.332031 129.960938 40.25 C 129.753906 41.167969 130.324219 42.089844 131.242188 42.296875 L 136.578125 43.511719 C 136.699219 43.542969 136.835938 43.542969 136.960938 43.542969 C 137.738281 43.542969 138.449219 43.007812 138.621094 42.226562 Z M 150.191406 66.292969 C 147.957031 64.265625 146.070312 62.183594 144.457031 60.15625 C 143.109375 58.4375 141.945312 56.757812 140.976562 55.179688 C 139.054688 52.039062 137.773438 49.230469 136.960938 47.21875 L 128.144531 69.636719 L 125.925781 75.273438 L 112.660156 109.082031 L 118.355469 106.117188 L 123.222656 103.585938 L 147.765625 90.792969 L 153.136719 88 L 172.03125 78.152344 C 167.492188 76.957031 158.625 73.972656 150.191406 66.292969 Z M 168.949219 36.746094 C 168.410156 36.746094 167.875 36.488281 167.546875 36.003906 C 167.007812 35.222656 167.199219 34.164062 167.980469 33.628906 C 168.707031 33.125 170.457031 31.683594 170.976562 29.152344 C 171.375 27.210938 170.835938 25.597656 170.472656 24.800781 C 170.089844 23.933594 170.472656 22.929688 171.339844 22.546875 C 172.203125 22.167969 173.210938 22.546875 173.589844 23.414062 C 174.109375 24.578125 174.90625 26.96875 174.316406 29.847656 C 173.554688 33.59375 170.992188 35.707031 169.917969 36.453125 C 169.625 36.644531 169.277344 36.746094 168.949219 36.746094 " fill-opacity="1" fill-rule="nonzero"/></g><path fill="#f9b53f" d="M 150.191406 85.816406 C 148.492188 85.816406 147.109375 87.183594 147.109375 88.902344 C 147.109375 89.613281 147.351562 90.269531 147.75 90.792969 L 153.117188 88 C 152.738281 86.734375 151.558594 85.816406 150.191406 85.816406 Z M 128.144531 69.636719 L 125.925781 75.273438 C 126.394531 75.566406 126.929688 75.722656 127.519531 75.722656 C 129.21875 75.722656 130.601562 74.355469 130.601562 72.636719 C 130.601562 71.164062 129.546875 69.917969 128.144531 69.636719 Z M 159.300781 76.089844 C 157.605469 76.089844 156.21875 77.476562 156.21875 79.175781 C 156.21875 80.875 157.585938 82.261719 159.300781 82.261719 C 161 82.261719 162.382812 80.890625 162.382812 79.175781 C 162.382812 77.476562 161.015625 76.089844 159.300781 76.089844 Z M 134.292969 82.746094 C 132.59375 82.746094 131.207031 84.117188 131.207031 85.832031 C 131.207031 87.53125 132.578125 88.917969 134.292969 88.917969 C 136.007812 88.917969 137.375 87.550781 137.375 85.832031 C 137.375 84.117188 135.988281 82.746094 134.292969 82.746094 Z M 120.140625 100.535156 C 118.445312 100.535156 117.058594 101.90625 117.058594 103.621094 C 117.058594 104.660156 117.5625 105.5625 118.339844 106.136719 L 123.222656 103.585938 C 123.207031 101.886719 121.839844 100.535156 120.140625 100.535156 Z M 140.976562 55.160156 C 139.972656 55.664062 139.28125 56.703125 139.28125 57.917969 C 139.28125 59.617188 140.648438 61.003906 142.363281 61.003906 C 143.175781 61.003906 143.9375 60.675781 144.476562 60.15625 C 143.109375 58.4375 141.945312 56.757812 140.976562 55.160156 Z M 191.863281 41.5 C 189.558594 40.597656 184.867188 39.332031 179.410156 40.824219 C 172.394531 42.746094 168.722656 47.929688 167.476562 50.082031 C 166.992188 50.894531 167.269531 51.9375 168.082031 52.421875 C 168.359375 52.578125 168.652344 52.664062 168.949219 52.664062 C 169.539062 52.664062 170.109375 52.351562 170.421875 51.816406 C 171.460938 50.027344 174.507812 45.730469 180.308594 44.132812 C 184.8125 42.886719 188.710938 43.960938 190.617188 44.6875 C 191.5 45.035156 192.484375 44.585938 192.832031 43.71875 C 193.179688 42.851562 192.746094 41.84375 191.863281 41.5 " fill-opacity="1" fill-rule="nonzero"/><path fill="#1c4a6b" d="M 181.226562 84.964844 C 181.347656 84.929688 181.417969 84.828125 181.382812 84.707031 L 180.328125 80.199219 C 180.292969 80.078125 180.1875 80.007812 180.066406 80.042969 C 179.945312 80.078125 179.878906 80.179688 179.910156 80.300781 L 180.96875 84.808594 C 180.984375 84.914062 181.074219 84.984375 181.175781 84.984375 C 181.195312 84.964844 181.210938 84.964844 181.226562 84.964844 Z M 145.53125 32.707031 C 145.636719 32.640625 145.671875 32.519531 145.601562 32.414062 L 141.859375 26.464844 C 141.792969 26.363281 141.671875 26.34375 141.566406 26.398438 C 141.460938 26.464844 141.425781 26.585938 141.496094 26.691406 L 145.238281 32.640625 C 145.273438 32.707031 145.34375 32.742188 145.410156 32.742188 C 145.464844 32.726562 145.496094 32.726562 145.53125 32.707031 Z M 168.722656 50.828125 C 169.816406 49.039062 173 44.6875 178.960938 42.78125 C 184.726562 40.910156 189.75 42.453125 191.636719 43.179688 C 191.742188 43.214844 191.863281 43.164062 191.914062 43.058594 C 191.964844 42.957031 191.898438 42.816406 191.792969 42.78125 C 189.402344 41.84375 184.519531 40.527344 178.839844 42.367188 C 172.757812 44.324219 169.484375 48.78125 168.359375 50.601562 C 168.289062 50.707031 168.324219 50.828125 168.429688 50.894531 C 168.464844 50.914062 168.5 50.929688 168.53125 50.929688 C 168.601562 50.929688 168.671875 50.894531 168.722656 50.828125 Z M 151.613281 67.539062 C 151.679688 67.453125 151.679688 67.316406 151.59375 67.246094 C 148.371094 64.453125 145.480469 61.28125 143.019531 57.8125 C 141.203125 55.265625 139.609375 52.527344 138.277344 49.683594 C 138.222656 49.578125 138.101562 49.527344 138 49.578125 C 137.894531 49.628906 137.84375 49.75 137.894531 49.855469 C 139.246094 52.714844 140.839844 55.472656 142.675781 58.058594 C 145.152344 61.558594 148.0625 64.765625 151.316406 67.558594 C 151.351562 67.59375 151.402344 67.609375 151.457031 67.609375 C 151.507812 67.609375 151.578125 67.59375 151.613281 67.539062 Z M 156.964844 81.1875 C 157.066406 81.117188 157.085938 80.976562 157.015625 80.890625 C 156.097656 79.609375 156.355469 77.804688 157.605469 76.886719 C 158.210938 76.433594 159.007812 76.246094 159.785156 76.382812 C 160.582031 76.523438 161.277344 76.972656 161.726562 77.648438 C 161.796875 77.753906 161.917969 77.769531 162.019531 77.699219 C 162.125 77.632812 162.140625 77.511719 162.074219 77.40625 C 161.554688 76.625 160.773438 76.125 159.855469 75.96875 C 158.972656 75.8125 158.054688 76.019531 157.34375 76.539062 C 155.925781 77.597656 155.613281 79.660156 156.667969 81.132812 C 156.703125 81.1875 156.773438 81.21875 156.84375 81.21875 C 156.875 81.21875 156.929688 81.203125 156.964844 81.1875 Z M 117.320312 104.835938 C 117.421875 104.800781 117.492188 104.679688 117.457031 104.558594 C 117.042969 103.273438 117.527344 101.871094 118.636719 101.175781 C 119.640625 100.550781 120.957031 100.621094 121.910156 101.351562 C 121.996094 101.417969 122.132812 101.402344 122.203125 101.316406 C 122.273438 101.230469 122.253906 101.089844 122.167969 101.019531 C 121.058594 100.1875 119.554688 100.101562 118.410156 100.828125 C 117.128906 101.628906 116.574219 103.222656 117.058594 104.714844 C 117.09375 104.800781 117.179688 104.871094 117.265625 104.871094 C 117.265625 104.835938 117.285156 104.835938 117.320312 104.835938 Z M 134.292969 89.109375 C 134.171875 89.109375 134.085938 89.003906 134.085938 88.902344 C 134.085938 88.78125 134.1875 88.691406 134.292969 88.691406 C 135.867188 88.691406 137.148438 87.410156 137.148438 85.832031 C 137.148438 84.253906 135.867188 82.972656 134.292969 82.972656 C 134.171875 82.972656 134.085938 82.867188 134.085938 82.761719 C 134.085938 82.660156 134.1875 82.554688 134.292969 82.554688 C 136.109375 82.554688 137.582031 84.03125 137.582031 85.851562 C 137.582031 87.636719 136.109375 89.109375 134.292969 89.109375 " fill-opacity="1" fill-rule="nonzero"/><g fill="#1c4a6b" fill-opacity="1"><g transform="translate(0.918373, 162.792921)"><g><path d="M 11.570312 0 L 18.804688 0 L 18.804688 -28.628906 L 29.128906 -28.628906 L 29.128906 -34.914062 L 1.195312 -34.914062 L 1.195312 -28.628906 L 11.570312 -28.628906 Z M 11.570312 0 "/></g></g></g><g fill="#1c4a6b" fill-opacity="1"><g transform="translate(31.24274, 162.792921)"><g><path d="M 4.289062 0 L 11.519531 0 L 11.519531 -34.914062 L 4.289062 -34.914062 Z M 4.289062 0 "/></g></g></g><g fill="#1c4a6b" fill-opacity="1"><g transform="translate(47.103186, 162.792921)"><g><path d="M 7.78125 0 L 28.679688 0 L 32.867188 -4.191406 L 32.867188 -20.996094 L 17.308594 -20.996094 L 17.308594 -14.664062 L 25.636719 -14.664062 L 25.636719 -7.429688 L 24.488281 -6.285156 L 11.96875 -6.285156 L 10.871094 -7.429688 L 10.871094 -27.480469 L 11.96875 -28.628906 L 24.488281 -28.628906 L 25.636719 -27.480469 L 25.636719 -23.988281 L 32.867188 -23.988281 L 32.867188 -30.773438 L 28.679688 -34.914062 L 7.78125 -34.914062 L 3.640625 -30.773438 L 3.640625 -4.191406 Z M 7.78125 0 "/></g></g></g><g fill="#1c4a6b" fill-opacity="1"><g transform="translate(83.56225, 162.792921)"><g><path d="M 7.78125 0 L 28.679688 0 L 32.867188 -4.191406 L 32.867188 -20.996094 L 17.308594 -20.996094 L 17.308594 -14.664062 L 25.636719 -14.664062 L 25.636719 -7.429688 L 24.488281 -6.285156 L 11.96875 -6.285156 L 10.871094 -7.429688 L 10.871094 -27.480469 L 11.96875 -28.628906 L 24.488281 -28.628906 L 25.636719 -27.480469 L 25.636719 -23.988281 L 32.867188 -23.988281 L 32.867188 -30.773438 L 28.679688 -34.914062 L 7.78125 -34.914062 L 3.640625 -30.773438 L 3.640625 -4.191406 Z M 7.78125 0 "/></g></g></g><g fill="#1c4a6b" fill-opacity="1"><g transform="translate(120.021314, 162.792921)"><g><path d="M 7.78125 0 L 28.679688 0 L 32.867188 -4.191406 L 32.867188 -30.773438 L 28.679688 -34.914062 L 7.78125 -34.914062 L 3.640625 -30.773438 L 3.640625 -4.191406 Z M 10.871094 -7.429688 L 10.871094 -27.480469 L 11.96875 -28.628906 L 24.488281 -28.628906 L 25.636719 -27.480469 L 25.636719 -7.429688 L 24.488281 -6.285156 L 11.96875 -6.285156 Z M 10.871094 -7.429688 "/></g></g></g><g fill="#0979cc" fill-opacity="1"><g transform="translate(147.485995, 160.608487)"><g><path d="M 22.75 0 L 23.710938 0 L 23.710938 -30.589844 L 25.828125 -32.703125 L 37.128906 -32.703125 L 39.246094 -30.589844 L 39.246094 0 L 40.207031 0 L 40.207031 -30.972656 L 37.511719 -33.667969 L 25.441406 -33.667969 L 23.230469 -31.453125 L 21.015625 -33.667969 L 8.945312 -33.667969 L 6.253906 -30.972656 L 6.253906 0 L 7.214844 0 L 7.214844 -30.589844 L 9.332031 -32.703125 L 20.632812 -32.703125 L 22.75 -30.589844 Z M 22.75 0 "/></g></g></g><g fill="#0979cc" fill-opacity="1"><g transform="translate(193.942022, 160.608487)"><g><path d="M 6.253906 0 L 7.214844 0 L 7.214844 -13.464844 L 29.578125 -13.464844 L 29.578125 0 L 30.539062 0 L 30.539062 -30.972656 L 27.847656 -33.667969 L 8.945312 -33.667969 L 6.253906 -30.972656 Z M 7.214844 -14.429688 L 7.214844 -30.589844 L 9.332031 -32.703125 L 27.460938 -32.703125 L 29.578125 -30.589844 L 29.578125 -14.429688 Z M 7.214844 -14.429688 "/></g></g></g><g fill="#0979cc" fill-opacity="1"><g transform="translate(230.731728, 160.608487)"><g><path d="M 6.253906 0 L 7.214844 0 L 7.214844 -13.949219 L 26.5 -13.949219 L 29.578125 -10.871094 L 29.578125 0 L 30.539062 0 L 30.539062 -11.253906 L 27.367188 -14.429688 L 30.539062 -17.601562 L 30.539062 -30.972656 L 27.847656 -33.667969 L 6.253906 -33.667969 Z M 7.214844 -14.910156 L 7.214844 -32.703125 L 27.460938 -32.703125 L 29.578125 -30.589844 L 29.578125 -17.988281 L 26.5 -14.910156 Z M 7.214844 -14.910156 "/></g></g></g><g fill="#0979cc" fill-opacity="1"><g transform="translate(267.04053, 160.608487)"><g><path d="M 6.253906 0 L 7.214844 0 L 7.214844 -16.351562 L 20.296875 -16.351562 L 29.625 -7.023438 L 29.625 0 L 30.589844 0 L 30.589844 -7.40625 L 21.160156 -16.832031 L 30.589844 -26.257812 L 30.589844 -33.667969 L 29.625 -33.667969 L 29.625 -26.644531 L 20.296875 -17.3125 L 7.214844 -17.3125 L 7.214844 -33.667969 L 6.253906 -33.667969 Z M 6.253906 0 "/></g></g></g></svg>